<svg xmlns="http://www.w3.org/2000/svg" width="1200" height="720" viewBox="0 0 1200 720">
<rect width="100%" height="100%" fill="#fbfaf6"/>
<text x="600" y="42" text-anchor="middle" font-size="28" fill="#1f2933">Total Character Reduction by Experiment Group</text>
<line x1="90" y1="550" x2="1160" y2="550" stroke="#334e68" stroke-width="2"/>
<line x1="90" y1="550.00" x2="1160" y2="550.00" stroke="#d9e2ec" stroke-width="1"/>
<text x="78" y="555.00" text-anchor="end" font-size="14" fill="#486581">0</text>
<line x1="90" y1="456.00" x2="1160" y2="456.00" stroke="#d9e2ec" stroke-width="1"/>
<text x="78" y="461.00" text-anchor="end" font-size="14" fill="#486581">522</text>
<line x1="90" y1="362.00" x2="1160" y2="362.00" stroke="#d9e2ec" stroke-width="1"/>
<text x="78" y="367.00" text-anchor="end" font-size="14" fill="#486581">1043</text>
<line x1="90" y1="268.00" x2="1160" y2="268.00" stroke="#d9e2ec" stroke-width="1"/>
<text x="78" y="273.00" text-anchor="end" font-size="14" fill="#486581">1565</text>
<line x1="90" y1="174.00" x2="1160" y2="174.00" stroke="#d9e2ec" stroke-width="1"/>
<text x="78" y="179.00" text-anchor="end" font-size="14" fill="#486581">2086</text>
<line x1="90" y1="80.00" x2="1160" y2="80.00" stroke="#d9e2ec" stroke-width="1"/>
<text x="78" y="85.00" text-anchor="end" font-size="14" fill="#486581">2608</text>
<rect x="116.75" y="532.52" width="99.36" height="17.48" fill="#c46a2d" rx="4"/>
<text x="166.43" y="524.52" text-anchor="middle" font-size="13" fill="#102a43">97</text>
<text x="166.43" y="572.00" text-anchor="end" transform="rotate(-28 166.43,572.00)" font-size="13" fill="#243b53">single_word</text>
<rect x="269.61" y="326.17" width="99.36" height="223.83" fill="#c46a2d" rx="4"/>
<text x="319.29" y="318.17" text-anchor="middle" font-size="13" fill="#102a43">1242</text>
<text x="319.29" y="572.00" text-anchor="end" transform="rotate(-28 319.29,572.00)" font-size="13" fill="#243b53">multi_word_phrase</text>
<rect x="422.46" y="528.91" width="99.36" height="21.09" fill="#c46a2d" rx="4"/>
<text x="472.14" y="520.91" text-anchor="middle" font-size="13" fill="#102a43">117</text>
<text x="472.14" y="572.00" text-anchor="end" transform="rotate(-28 472.14,572.00)" font-size="13" fill="#243b53">number_heavy</text>
<rect x="575.32" y="540.63" width="99.36" height="9.37" fill="#c46a2d" rx="4"/>
<text x="625.00" y="532.63" text-anchor="middle" font-size="13" fill="#102a43">52</text>
<text x="625.00" y="572.00" text-anchor="end" transform="rotate(-28 625.00,572.00)" font-size="13" fill="#243b53">punctuation_heavy</text>
<rect x="728.18" y="548.74" width="99.36" height="1.26" fill="#c46a2d" rx="4"/>
<text x="777.86" y="540.74" text-anchor="middle" font-size="13" fill="#102a43">7</text>
<text x="777.86" y="572.00" text-anchor="end" transform="rotate(-28 777.86,572.00)" font-size="13" fill="#243b53">mixed_digits_punctuation</text>
<rect x="881.04" y="80.00" width="99.36" height="470.00" fill="#c46a2d" rx="4"/>
<text x="930.71" y="72.00" text-anchor="middle" font-size="13" fill="#102a43">2608</text>
<text x="930.71" y="572.00" text-anchor="end" transform="rotate(-28 930.71,572.00)" font-size="13" fill="#243b53">long_sentence_gt20_words</text>
<rect x="1033.89" y="338.97" width="99.36" height="211.03" fill="#c46a2d" rx="4"/>
<text x="1083.57" y="330.97" text-anchor="middle" font-size="13" fill="#102a43">1171</text>
<text x="1083.57" y="572.00" text-anchor="end" transform="rotate(-28 1083.57,572.00)" font-size="13" fill="#243b53">paragraph_samples</text>
</svg>