<svg xmlns="http://www.w3.org/2000/svg" width="1200" height="720" viewBox="0 0 1200 720">
<rect width="100%" height="100%" fill="#fbfaf6"/>
<text x="600" y="42" text-anchor="middle" font-size="28" fill="#1f2933">Normalized Compression Ratio by Experiment Group</text>
<line x1="90" y1="550" x2="1160" y2="550" stroke="#334e68" stroke-width="2"/>
<line x1="90" y1="550.00" x2="1160" y2="550.00" stroke="#d9e2ec" stroke-width="1"/>
<text x="78" y="555.00" text-anchor="end" font-size="14" fill="#486581">0.0%</text>
<line x1="90" y1="456.00" x2="1160" y2="456.00" stroke="#d9e2ec" stroke-width="1"/>
<text x="78" y="461.00" text-anchor="end" font-size="14" fill="#486581">15.8%</text>
<line x1="90" y1="362.00" x2="1160" y2="362.00" stroke="#d9e2ec" stroke-width="1"/>
<text x="78" y="367.00" text-anchor="end" font-size="14" fill="#486581">31.5%</text>
<line x1="90" y1="268.00" x2="1160" y2="268.00" stroke="#d9e2ec" stroke-width="1"/>
<text x="78" y="273.00" text-anchor="end" font-size="14" fill="#486581">47.3%</text>
<line x1="90" y1="174.00" x2="1160" y2="174.00" stroke="#d9e2ec" stroke-width="1"/>
<text x="78" y="179.00" text-anchor="end" font-size="14" fill="#486581">63.1%</text>
<line x1="90" y1="80.00" x2="1160" y2="80.00" stroke="#d9e2ec" stroke-width="1"/>
<text x="78" y="85.00" text-anchor="end" font-size="14" fill="#486581">78.9%</text>
<rect x="113.41" y="158.89" width="86.94" height="391.11" fill="#2f6b7c" rx="4"/>
<text x="156.88" y="150.89" text-anchor="middle" font-size="13" fill="#102a43">65.62%</text>
<text x="156.88" y="572.00" text-anchor="end" transform="rotate(-28 156.88,572.00)" font-size="13" fill="#243b53">single_word</text>
<rect x="247.16" y="170.71" width="86.94" height="379.29" fill="#2f6b7c" rx="4"/>
<text x="290.62" y="162.71" text-anchor="middle" font-size="13" fill="#102a43">63.64%</text>
<text x="290.62" y="572.00" text-anchor="end" transform="rotate(-28 290.62,572.00)" font-size="13" fill="#243b53">multi_word_phrase</text>
<rect x="380.91" y="171.96" width="86.94" height="378.04" fill="#2f6b7c" rx="4"/>
<text x="424.38" y="163.96" text-anchor="middle" font-size="13" fill="#102a43">63.43%</text>
<text x="424.38" y="572.00" text-anchor="end" transform="rotate(-28 424.38,572.00)" font-size="13" fill="#243b53">number_heavy</text>
<rect x="514.66" y="171.97" width="86.94" height="378.03" fill="#2f6b7c" rx="4"/>
<text x="558.12" y="163.97" text-anchor="middle" font-size="13" fill="#102a43">63.43%</text>
<text x="558.12" y="572.00" text-anchor="end" transform="rotate(-28 558.12,572.00)" font-size="13" fill="#243b53">punctuation_heavy</text>
<rect x="648.41" y="171.97" width="86.94" height="378.03" fill="#2f6b7c" rx="4"/>
<text x="691.88" y="163.97" text-anchor="middle" font-size="13" fill="#102a43">63.43%</text>
<text x="691.88" y="572.00" text-anchor="end" transform="rotate(-28 691.88,572.00)" font-size="13" fill="#243b53">mixed_digits_punctuation</text>
<rect x="782.16" y="80.00" width="86.94" height="470.00" fill="#2f6b7c" rx="4"/>
<text x="825.62" y="72.00" text-anchor="middle" font-size="13" fill="#102a43">78.86%</text>
<text x="825.62" y="572.00" text-anchor="end" transform="rotate(-28 825.62,572.00)" font-size="13" fill="#243b53">long_sentence_gt20_words</text>
<rect x="915.91" y="90.64" width="86.94" height="459.36" fill="#2f6b7c" rx="4"/>
<text x="959.38" y="82.64" text-anchor="middle" font-size="13" fill="#102a43">77.07%</text>
<text x="959.38" y="572.00" text-anchor="end" transform="rotate(-28 959.38,572.00)" font-size="13" fill="#243b53">paragraph_samples</text>
<rect x="1049.66" y="120.92" width="86.94" height="429.08" fill="#2f6b7c" rx="4"/>
<text x="1093.12" y="112.92" text-anchor="middle" font-size="13" fill="#102a43">71.99%</text>
<text x="1093.12" y="572.00" text-anchor="end" transform="rotate(-28 1093.12,572.00)" font-size="13" fill="#243b53">long_text_gt200_words</text>
</svg>