<svg xmlns="http://www.w3.org/2000/svg" width="1200" height="720" viewBox="0 0 1200 720">
<rect width="100%" height="100%" fill="#fbfaf6"/>
<text x="600" y="42" text-anchor="middle" font-size="28" fill="#1f2933">Compression Ratio by Experiment Group</text>
<line x1="90" y1="550" x2="1160" y2="550" stroke="#334e68" stroke-width="2"/>
<line x1="90" y1="550.00" x2="1160" y2="550.00" stroke="#d9e2ec" stroke-width="1"/>
<text x="78" y="555.00" text-anchor="end" font-size="14" fill="#486581">0.0%</text>
<line x1="90" y1="456.00" x2="1160" y2="456.00" stroke="#d9e2ec" stroke-width="1"/>
<text x="78" y="461.00" text-anchor="end" font-size="14" fill="#486581">18.2%</text>
<line x1="90" y1="362.00" x2="1160" y2="362.00" stroke="#d9e2ec" stroke-width="1"/>
<text x="78" y="367.00" text-anchor="end" font-size="14" fill="#486581">36.3%</text>
<line x1="90" y1="268.00" x2="1160" y2="268.00" stroke="#d9e2ec" stroke-width="1"/>
<text x="78" y="273.00" text-anchor="end" font-size="14" fill="#486581">54.5%</text>
<line x1="90" y1="174.00" x2="1160" y2="174.00" stroke="#d9e2ec" stroke-width="1"/>
<text x="78" y="179.00" text-anchor="end" font-size="14" fill="#486581">72.6%</text>
<line x1="90" y1="80.00" x2="1160" y2="80.00" stroke="#d9e2ec" stroke-width="1"/>
<text x="78" y="85.00" text-anchor="end" font-size="14" fill="#486581">90.8%</text>
<rect x="116.75" y="80.00" width="99.36" height="470.00" fill="#2f6b7c" rx="4"/>
<text x="166.43" y="72.00" text-anchor="middle" font-size="13" fill="#102a43">90.81%</text>
<text x="166.43" y="572.00" text-anchor="end" transform="rotate(-28 166.43,572.00)" font-size="13" fill="#243b53">single_word</text>
<rect x="269.61" y="89.71" width="99.36" height="460.29" fill="#2f6b7c" rx="4"/>
<text x="319.29" y="81.71" text-anchor="middle" font-size="13" fill="#102a43">88.93%</text>
<text x="319.29" y="572.00" text-anchor="end" transform="rotate(-28 319.29,572.00)" font-size="13" fill="#243b53">multi_word_phrase</text>
<rect x="422.46" y="126.89" width="99.36" height="423.11" fill="#2f6b7c" rx="4"/>
<text x="472.14" y="118.89" text-anchor="middle" font-size="13" fill="#102a43">81.75%</text>
<text x="472.14" y="572.00" text-anchor="end" transform="rotate(-28 472.14,572.00)" font-size="13" fill="#243b53">number_heavy</text>
<rect x="575.32" y="119.23" width="99.36" height="430.77" fill="#2f6b7c" rx="4"/>
<text x="625.00" y="111.23" text-anchor="middle" font-size="13" fill="#102a43">83.23%</text>
<text x="625.00" y="572.00" text-anchor="end" transform="rotate(-28 625.00,572.00)" font-size="13" fill="#243b53">punctuation_heavy</text>
<rect x="728.18" y="84.17" width="99.36" height="465.83" fill="#2f6b7c" rx="4"/>
<text x="777.86" y="76.17" text-anchor="middle" font-size="13" fill="#102a43">90.00%</text>
<text x="777.86" y="572.00" text-anchor="end" transform="rotate(-28 777.86,572.00)" font-size="13" fill="#243b53">mixed_digits_punctuation</text>
<rect x="881.04" y="93.69" width="99.36" height="456.31" fill="#2f6b7c" rx="4"/>
<text x="930.71" y="85.69" text-anchor="middle" font-size="13" fill="#102a43">88.16%</text>
<text x="930.71" y="572.00" text-anchor="end" transform="rotate(-28 930.71,572.00)" font-size="13" fill="#243b53">long_sentence_gt20_words</text>
<rect x="1033.89" y="95.56" width="99.36" height="454.44" fill="#2f6b7c" rx="4"/>
<text x="1083.57" y="87.56" text-anchor="middle" font-size="13" fill="#102a43">87.80%</text>
<text x="1083.57" y="572.00" text-anchor="end" transform="rotate(-28 1083.57,572.00)" font-size="13" fill="#243b53">paragraph_samples</text>
</svg>