<svg xmlns="http://www.w3.org/2000/svg" width="1200" height="720" viewBox="0 0 1200 720">
<rect width="100%" height="100%" fill="#fbfaf6"/>
<text x="600" y="42" text-anchor="middle" font-size="28" fill="#1f2933">Sample Compression Ratio vs Word Count</text>
<line x1="90" y1="640" x2="970" y2="640" stroke="#334e68" stroke-width="2"/>
<line x1="90" y1="80" x2="90" y2="640" stroke="#334e68" stroke-width="2"/>
<line x1="90.00" y1="80" x2="90.00" y2="640" stroke="#d9e2ec" stroke-width="1"/>
<text x="90.00" y="664.00" text-anchor="middle" font-size="14" fill="#486581">0</text>
<line x1="266.00" y1="80" x2="266.00" y2="640" stroke="#d9e2ec" stroke-width="1"/>
<text x="266.00" y="664.00" text-anchor="middle" font-size="14" fill="#486581">47</text>
<line x1="442.00" y1="80" x2="442.00" y2="640" stroke="#d9e2ec" stroke-width="1"/>
<text x="442.00" y="664.00" text-anchor="middle" font-size="14" fill="#486581">94</text>
<line x1="618.00" y1="80" x2="618.00" y2="640" stroke="#d9e2ec" stroke-width="1"/>
<text x="618.00" y="664.00" text-anchor="middle" font-size="14" fill="#486581">140</text>
<line x1="794.00" y1="80" x2="794.00" y2="640" stroke="#d9e2ec" stroke-width="1"/>
<text x="794.00" y="664.00" text-anchor="middle" font-size="14" fill="#486581">187</text>
<line x1="970.00" y1="80" x2="970.00" y2="640" stroke="#d9e2ec" stroke-width="1"/>
<text x="970.00" y="664.00" text-anchor="middle" font-size="14" fill="#486581">234</text>
<line x1="90" y1="640.00" x2="970" y2="640.00" stroke="#d9e2ec" stroke-width="1"/>
<text x="78" y="645.00" text-anchor="end" font-size="14" fill="#486581">62.7%</text>
<line x1="90" y1="528.00" x2="970" y2="528.00" stroke="#d9e2ec" stroke-width="1"/>
<text x="78" y="533.00" text-anchor="end" font-size="14" fill="#486581">70.2%</text>
<line x1="90" y1="416.00" x2="970" y2="416.00" stroke="#d9e2ec" stroke-width="1"/>
<text x="78" y="421.00" text-anchor="end" font-size="14" fill="#486581">77.6%</text>
<line x1="90" y1="304.00" x2="970" y2="304.00" stroke="#d9e2ec" stroke-width="1"/>
<text x="78" y="309.00" text-anchor="end" font-size="14" fill="#486581">85.1%</text>
<line x1="90" y1="192.00" x2="970" y2="192.00" stroke="#d9e2ec" stroke-width="1"/>
<text x="78" y="197.00" text-anchor="end" font-size="14" fill="#486581">92.5%</text>
<line x1="90" y1="80.00" x2="970" y2="80.00" stroke="#d9e2ec" stroke-width="1"/>
<text x="78" y="85.00" text-anchor="end" font-size="14" fill="#486581">100.0%</text>
<circle cx="93.76" cy="305.27" r="4.5" fill="#4C78A8" fill-opacity="0.72"/>
<circle cx="93.76" cy="380.36" r="4.5" fill="#4C78A8" fill-opacity="0.72"/>
<circle cx="93.76" cy="80.00" r="4.5" fill="#4C78A8" fill-opacity="0.72"/>
<circle cx="93.76" cy="640.00" r="4.5" fill="#4C78A8" fill-opacity="0.72"/>
<circle cx="93.76" cy="514.12" r="4.5" fill="#4C78A8" fill-opacity="0.72"/>
<circle cx="93.76" cy="530.55" r="4.5" fill="#4C78A8" fill-opacity="0.72"/>
<circle cx="93.76" cy="80.00" r="4.5" fill="#4C78A8" fill-opacity="0.72"/>
<circle cx="93.76" cy="311.05" r="4.5" fill="#4C78A8" fill-opacity="0.72"/>
<circle cx="93.76" cy="80.00" r="4.5" fill="#4C78A8" fill-opacity="0.72"/>
<circle cx="93.76" cy="480.48" r="4.5" fill="#4C78A8" fill-opacity="0.72"/>
<circle cx="93.76" cy="200.15" r="4.5" fill="#4C78A8" fill-opacity="0.72"/>
<circle cx="93.76" cy="521.71" r="4.5" fill="#4C78A8" fill-opacity="0.72"/>
<circle cx="93.76" cy="80.00" r="4.5" fill="#4C78A8" fill-opacity="0.72"/>
<circle cx="93.76" cy="80.00" r="4.5" fill="#4C78A8" fill-opacity="0.72"/>
<circle cx="93.76" cy="80.00" r="4.5" fill="#4C78A8" fill-opacity="0.72"/>
<circle cx="93.76" cy="80.00" r="4.5" fill="#4C78A8" fill-opacity="0.72"/>
<circle cx="93.76" cy="80.00" r="4.5" fill="#4C78A8" fill-opacity="0.72"/>
<circle cx="93.76" cy="80.00" r="4.5" fill="#4C78A8" fill-opacity="0.72"/>
<circle cx="93.76" cy="80.00" r="4.5" fill="#4C78A8" fill-opacity="0.72"/>
<circle cx="93.76" cy="80.00" r="4.5" fill="#4C78A8" fill-opacity="0.72"/>
<circle cx="93.76" cy="80.00" r="4.5" fill="#4C78A8" fill-opacity="0.72"/>
<circle cx="93.76" cy="80.00" r="4.5" fill="#4C78A8" fill-opacity="0.72"/>
<circle cx="93.76" cy="267.73" r="4.5" fill="#4C78A8" fill-opacity="0.72"/>
<circle cx="93.76" cy="159.04" r="4.5" fill="#4C78A8" fill-opacity="0.72"/>
<circle cx="93.76" cy="280.24" r="4.5" fill="#4C78A8" fill-opacity="0.72"/>
<circle cx="93.76" cy="200.15" r="4.5" fill="#4C78A8" fill-opacity="0.72"/>
<circle cx="93.76" cy="216.53" r="4.5" fill="#4C78A8" fill-opacity="0.72"/>
<circle cx="93.76" cy="195.52" r="4.5" fill="#4C78A8" fill-opacity="0.72"/>
<circle cx="93.76" cy="80.00" r="4.5" fill="#4C78A8" fill-opacity="0.72"/>
<circle cx="93.76" cy="80.00" r="4.5" fill="#4C78A8" fill-opacity="0.72"/>
<circle cx="93.76" cy="80.00" r="4.5" fill="#4C78A8" fill-opacity="0.72"/>
<circle cx="93.76" cy="80.00" r="4.5" fill="#4C78A8" fill-opacity="0.72"/>
<circle cx="93.76" cy="361.59" r="4.5" fill="#4C78A8" fill-opacity="0.72"/>
<circle cx="93.76" cy="80.00" r="4.5" fill="#4C78A8" fill-opacity="0.72"/>
<circle cx="93.76" cy="80.00" r="4.5" fill="#4C78A8" fill-opacity="0.72"/>
<circle cx="93.76" cy="80.00" r="4.5" fill="#4C78A8" fill-opacity="0.72"/>
<circle cx="93.76" cy="80.00" r="4.5" fill="#4C78A8" fill-opacity="0.72"/>
<circle cx="93.76" cy="294.55" r="4.5" fill="#4C78A8" fill-opacity="0.72"/>
<circle cx="93.76" cy="80.00" r="4.5" fill="#4C78A8" fill-opacity="0.72"/>
<circle cx="93.76" cy="80.00" r="4.5" fill="#4C78A8" fill-opacity="0.72"/>
<circle cx="93.76" cy="80.00" r="4.5" fill="#4C78A8" fill-opacity="0.72"/>
<circle cx="93.76" cy="223.03" r="4.5" fill="#4C78A8" fill-opacity="0.72"/>
<circle cx="93.76" cy="151.52" r="4.5" fill="#4C78A8" fill-opacity="0.72"/>
<circle cx="93.76" cy="80.00" r="4.5" fill="#4C78A8" fill-opacity="0.72"/>
<circle cx="93.76" cy="80.00" r="4.5" fill="#4C78A8" fill-opacity="0.72"/>
<circle cx="93.76" cy="80.00" r="4.5" fill="#4C78A8" fill-opacity="0.72"/>
<circle cx="93.76" cy="246.87" r="4.5" fill="#4C78A8" fill-opacity="0.72"/>
<circle cx="93.76" cy="80.00" r="4.5" fill="#4C78A8" fill-opacity="0.72"/>
<circle cx="97.52" cy="246.87" r="4.5" fill="#F58518" fill-opacity="0.72"/>
<circle cx="97.52" cy="262.04" r="4.5" fill="#F58518" fill-opacity="0.72"/>
<circle cx="97.52" cy="273.78" r="4.5" fill="#F58518" fill-opacity="0.72"/>
<circle cx="97.52" cy="494.29" r="4.5" fill="#F58518" fill-opacity="0.72"/>
<circle cx="97.52" cy="317.13" r="4.5" fill="#F58518" fill-opacity="0.72"/>
<circle cx="97.52" cy="173.86" r="4.5" fill="#F58518" fill-opacity="0.72"/>
<circle cx="105.04" cy="318.38" r="4.5" fill="#F58518" fill-opacity="0.72"/>
<circle cx="101.28" cy="444.73" r="4.5" fill="#F58518" fill-opacity="0.72"/>
<circle cx="105.04" cy="273.09" r="4.5" fill="#F58518" fill-opacity="0.72"/>
<circle cx="97.52" cy="401.82" r="4.5" fill="#F58518" fill-opacity="0.72"/>
<circle cx="97.52" cy="280.24" r="4.5" fill="#F58518" fill-opacity="0.72"/>
<circle cx="97.52" cy="413.74" r="4.5" fill="#F58518" fill-opacity="0.72"/>
<circle cx="97.52" cy="240.91" r="4.5" fill="#F58518" fill-opacity="0.72"/>
<circle cx="97.52" cy="220.80" r="4.5" fill="#F58518" fill-opacity="0.72"/>
<circle cx="97.52" cy="183.57" r="4.5" fill="#F58518" fill-opacity="0.72"/>
<circle cx="97.52" cy="143.91" r="4.5" fill="#F58518" fill-opacity="0.72"/>
<circle cx="97.52" cy="284.79" r="4.5" fill="#F58518" fill-opacity="0.72"/>
<circle cx="97.52" cy="216.53" r="4.5" fill="#F58518" fill-opacity="0.72"/>
<circle cx="97.52" cy="251.64" r="4.5" fill="#F58518" fill-opacity="0.72"/>
<circle cx="97.52" cy="263.15" r="4.5" fill="#F58518" fill-opacity="0.72"/>
<circle cx="97.52" cy="353.06" r="4.5" fill="#F58518" fill-opacity="0.72"/>
<circle cx="97.52" cy="413.74" r="4.5" fill="#F58518" fill-opacity="0.72"/>
<circle cx="101.28" cy="216.53" r="4.5" fill="#F58518" fill-opacity="0.72"/>
<circle cx="97.52" cy="308.54" r="4.5" fill="#F58518" fill-opacity="0.72"/>
<circle cx="97.52" cy="267.73" r="4.5" fill="#F58518" fill-opacity="0.72"/>
<circle cx="97.52" cy="300.86" r="4.5" fill="#F58518" fill-opacity="0.72"/>
<circle cx="101.28" cy="216.53" r="4.5" fill="#F58518" fill-opacity="0.72"/>
<circle cx="101.28" cy="437.58" r="4.5" fill="#F58518" fill-opacity="0.72"/>
<circle cx="97.52" cy="254.63" r="4.5" fill="#F58518" fill-opacity="0.72"/>
<circle cx="101.28" cy="497.17" r="4.5" fill="#F58518" fill-opacity="0.72"/>
<circle cx="101.28" cy="183.57" r="4.5" fill="#F58518" fill-opacity="0.72"/>
<circle cx="101.28" cy="191.25" r="4.5" fill="#F58518" fill-opacity="0.72"/>
<circle cx="101.28" cy="258.79" r="4.5" fill="#F58518" fill-opacity="0.72"/>
<circle cx="97.52" cy="155.09" r="4.5" fill="#F58518" fill-opacity="0.72"/>
<circle cx="97.52" cy="153.26" r="4.5" fill="#F58518" fill-opacity="0.72"/>
<circle cx="101.28" cy="330.30" r="4.5" fill="#F58518" fill-opacity="0.72"/>
<circle cx="101.28" cy="251.64" r="4.5" fill="#F58518" fill-opacity="0.72"/>
<circle cx="101.28" cy="219.70" r="4.5" fill="#F58518" fill-opacity="0.72"/>
<circle cx="101.28" cy="238.09" r="4.5" fill="#F58518" fill-opacity="0.72"/>
<circle cx="105.04" cy="311.05" r="4.5" fill="#F58518" fill-opacity="0.72"/>
<circle cx="97.52" cy="439.13" r="4.5" fill="#F58518" fill-opacity="0.72"/>
<circle cx="105.04" cy="177.94" r="4.5" fill="#F58518" fill-opacity="0.72"/>
<circle cx="105.04" cy="178.25" r="4.5" fill="#F58518" fill-opacity="0.72"/>
<circle cx="108.80" cy="292.38" r="4.5" fill="#F58518" fill-opacity="0.72"/>
<circle cx="105.04" cy="230.18" r="4.5" fill="#F58518" fill-opacity="0.72"/>
<circle cx="105.04" cy="234.83" r="4.5" fill="#F58518" fill-opacity="0.72"/>
<circle cx="105.04" cy="317.13" r="4.5" fill="#F58518" fill-opacity="0.72"/>
<circle cx="105.04" cy="304.57" r="4.5" fill="#F58518" fill-opacity="0.72"/>
<circle cx="105.04" cy="300.86" r="4.5" fill="#F58518" fill-opacity="0.72"/>
<circle cx="108.80" cy="308.54" r="4.5" fill="#F58518" fill-opacity="0.72"/>
<circle cx="101.28" cy="220.80" r="4.5" fill="#F58518" fill-opacity="0.72"/>
<circle cx="101.28" cy="212.51" r="4.5" fill="#F58518" fill-opacity="0.72"/>
<circle cx="101.28" cy="317.13" r="4.5" fill="#F58518" fill-opacity="0.72"/>
<circle cx="101.28" cy="185.76" r="4.5" fill="#F58518" fill-opacity="0.72"/>
<circle cx="101.28" cy="193.77" r="4.5" fill="#F58518" fill-opacity="0.72"/>
<circle cx="101.28" cy="249.56" r="4.5" fill="#F58518" fill-opacity="0.72"/>
<circle cx="101.28" cy="182.86" r="4.5" fill="#F58518" fill-opacity="0.72"/>
<circle cx="101.28" cy="225.34" r="4.5" fill="#F58518" fill-opacity="0.72"/>
<circle cx="101.28" cy="290.25" r="4.5" fill="#F58518" fill-opacity="0.72"/>
<circle cx="101.28" cy="372.02" r="4.5" fill="#F58518" fill-opacity="0.72"/>
<circle cx="101.28" cy="173.86" r="4.5" fill="#F58518" fill-opacity="0.72"/>
<circle cx="101.28" cy="330.30" r="4.5" fill="#F58518" fill-opacity="0.72"/>
<circle cx="101.28" cy="285.73" r="4.5" fill="#F58518" fill-opacity="0.72"/>
<circle cx="101.28" cy="214.09" r="4.5" fill="#F58518" fill-opacity="0.72"/>
<circle cx="101.28" cy="168.34" r="4.5" fill="#F58518" fill-opacity="0.72"/>
<circle cx="101.28" cy="303.24" r="4.5" fill="#F58518" fill-opacity="0.72"/>
<circle cx="101.28" cy="187.27" r="4.5" fill="#F58518" fill-opacity="0.72"/>
<circle cx="101.28" cy="244.26" r="4.5" fill="#F58518" fill-opacity="0.72"/>
<circle cx="101.28" cy="353.06" r="4.5" fill="#F58518" fill-opacity="0.72"/>
<circle cx="101.28" cy="244.26" r="4.5" fill="#F58518" fill-opacity="0.72"/>
<circle cx="101.28" cy="197.33" r="4.5" fill="#F58518" fill-opacity="0.72"/>
<circle cx="101.28" cy="413.74" r="4.5" fill="#F58518" fill-opacity="0.72"/>
<circle cx="101.28" cy="224.01" r="4.5" fill="#F58518" fill-opacity="0.72"/>
<circle cx="101.28" cy="371.40" r="4.5" fill="#F58518" fill-opacity="0.72"/>
<circle cx="101.28" cy="227.72" r="4.5" fill="#F58518" fill-opacity="0.72"/>
<circle cx="101.28" cy="232.36" r="4.5" fill="#F58518" fill-opacity="0.72"/>
<circle cx="101.28" cy="230.18" r="4.5" fill="#F58518" fill-opacity="0.72"/>
<circle cx="101.28" cy="228.07" r="4.5" fill="#F58518" fill-opacity="0.72"/>
<circle cx="101.28" cy="224.01" r="4.5" fill="#F58518" fill-opacity="0.72"/>
<circle cx="101.28" cy="347.45" r="4.5" fill="#F58518" fill-opacity="0.72"/>
<circle cx="101.28" cy="220.17" r="4.5" fill="#F58518" fill-opacity="0.72"/>
<circle cx="101.28" cy="167.06" r="4.5" fill="#F58518" fill-opacity="0.72"/>
<circle cx="101.28" cy="159.04" r="4.5" fill="#F58518" fill-opacity="0.72"/>
<circle cx="101.28" cy="291.52" r="4.5" fill="#F58518" fill-opacity="0.72"/>
<circle cx="101.28" cy="361.59" r="4.5" fill="#F58518" fill-opacity="0.72"/>
<circle cx="101.28" cy="264.43" r="4.5" fill="#F58518" fill-opacity="0.72"/>
<circle cx="101.28" cy="195.52" r="4.5" fill="#F58518" fill-opacity="0.72"/>
<circle cx="101.28" cy="176.89" r="4.5" fill="#F58518" fill-opacity="0.72"/>
<circle cx="101.28" cy="291.19" r="4.5" fill="#F58518" fill-opacity="0.72"/>
<circle cx="101.28" cy="181.47" r="4.5" fill="#F58518" fill-opacity="0.72"/>
<circle cx="101.28" cy="287.94" r="4.5" fill="#F58518" fill-opacity="0.72"/>
<circle cx="101.28" cy="264.43" r="4.5" fill="#F58518" fill-opacity="0.72"/>
<circle cx="101.28" cy="326.57" r="4.5" fill="#F58518" fill-opacity="0.72"/>
<circle cx="101.28" cy="167.06" r="4.5" fill="#F58518" fill-opacity="0.72"/>
<circle cx="101.28" cy="256.68" r="4.5" fill="#F58518" fill-opacity="0.72"/>
<circle cx="101.28" cy="246.87" r="4.5" fill="#F58518" fill-opacity="0.72"/>
<circle cx="101.28" cy="294.55" r="4.5" fill="#F58518" fill-opacity="0.72"/>
<circle cx="101.28" cy="280.24" r="4.5" fill="#F58518" fill-opacity="0.72"/>
<circle cx="101.28" cy="380.36" r="4.5" fill="#F58518" fill-opacity="0.72"/>
<circle cx="101.28" cy="238.09" r="4.5" fill="#F58518" fill-opacity="0.72"/>
<circle cx="101.28" cy="232.36" r="4.5" fill="#F58518" fill-opacity="0.72"/>
<circle cx="101.28" cy="175.35" r="4.5" fill="#F58518" fill-opacity="0.72"/>
<circle cx="101.28" cy="238.09" r="4.5" fill="#F58518" fill-opacity="0.72"/>
<circle cx="101.28" cy="238.09" r="4.5" fill="#F58518" fill-opacity="0.72"/>
<circle cx="101.28" cy="392.07" r="4.5" fill="#F58518" fill-opacity="0.72"/>
<circle cx="101.28" cy="175.35" r="4.5" fill="#F58518" fill-opacity="0.72"/>
<circle cx="101.28" cy="319.42" r="4.5" fill="#F58518" fill-opacity="0.72"/>
<circle cx="101.28" cy="297.65" r="4.5" fill="#F58518" fill-opacity="0.72"/>
<circle cx="101.28" cy="236.91" r="4.5" fill="#F58518" fill-opacity="0.72"/>
<circle cx="101.28" cy="187.27" r="4.5" fill="#F58518" fill-opacity="0.72"/>
<circle cx="101.28" cy="341.19" r="4.5" fill="#F58518" fill-opacity="0.72"/>
<circle cx="101.28" cy="256.68" r="4.5" fill="#F58518" fill-opacity="0.72"/>
<circle cx="101.28" cy="300.86" r="4.5" fill="#F58518" fill-opacity="0.72"/>
<circle cx="101.28" cy="301.58" r="4.5" fill="#F58518" fill-opacity="0.72"/>
<circle cx="101.28" cy="167.06" r="4.5" fill="#F58518" fill-opacity="0.72"/>
<circle cx="101.28" cy="189.22" r="4.5" fill="#F58518" fill-opacity="0.72"/>
<circle cx="101.28" cy="267.73" r="4.5" fill="#F58518" fill-opacity="0.72"/>
<circle cx="101.28" cy="309.09" r="4.5" fill="#F58518" fill-opacity="0.72"/>
<circle cx="101.28" cy="218.63" r="4.5" fill="#F58518" fill-opacity="0.72"/>
<circle cx="101.28" cy="246.87" r="4.5" fill="#F58518" fill-opacity="0.72"/>
<circle cx="101.28" cy="306.30" r="4.5" fill="#F58518" fill-opacity="0.72"/>
<circle cx="101.28" cy="298.45" r="4.5" fill="#F58518" fill-opacity="0.72"/>
<circle cx="101.28" cy="287.94" r="4.5" fill="#F58518" fill-opacity="0.72"/>
<circle cx="101.28" cy="173.86" r="4.5" fill="#F58518" fill-opacity="0.72"/>
<circle cx="101.28" cy="243.83" r="4.5" fill="#F58518" fill-opacity="0.72"/>
<circle cx="101.28" cy="191.25" r="4.5" fill="#F58518" fill-opacity="0.72"/>
<circle cx="101.28" cy="314.66" r="4.5" fill="#F58518" fill-opacity="0.72"/>
<circle cx="101.28" cy="267.73" r="4.5" fill="#F58518" fill-opacity="0.72"/>
<circle cx="101.28" cy="303.68" r="4.5" fill="#F58518" fill-opacity="0.72"/>
<circle cx="101.28" cy="335.03" r="4.5" fill="#F58518" fill-opacity="0.72"/>
<circle cx="101.28" cy="192.08" r="4.5" fill="#F58518" fill-opacity="0.72"/>
<circle cx="101.28" cy="270.37" r="4.5" fill="#F58518" fill-opacity="0.72"/>
<circle cx="101.28" cy="249.56" r="4.5" fill="#F58518" fill-opacity="0.72"/>
<circle cx="101.28" cy="380.36" r="4.5" fill="#F58518" fill-opacity="0.72"/>
<circle cx="101.28" cy="371.40" r="4.5" fill="#F58518" fill-opacity="0.72"/>
<circle cx="101.28" cy="225.34" r="4.5" fill="#F58518" fill-opacity="0.72"/>
<circle cx="101.28" cy="385.45" r="4.5" fill="#F58518" fill-opacity="0.72"/>
<circle cx="101.28" cy="230.18" r="4.5" fill="#F58518" fill-opacity="0.72"/>
<circle cx="101.28" cy="322.23" r="4.5" fill="#F58518" fill-opacity="0.72"/>
<circle cx="101.28" cy="315.58" r="4.5" fill="#F58518" fill-opacity="0.72"/>
<circle cx="101.28" cy="223.03" r="4.5" fill="#F58518" fill-opacity="0.72"/>
<circle cx="101.28" cy="168.34" r="4.5" fill="#F58518" fill-opacity="0.72"/>
<circle cx="101.28" cy="176.89" r="4.5" fill="#F58518" fill-opacity="0.72"/>
<circle cx="101.28" cy="338.12" r="4.5" fill="#F58518" fill-opacity="0.72"/>
<circle cx="101.28" cy="300.27" r="4.5" fill="#F58518" fill-opacity="0.72"/>
<circle cx="101.28" cy="267.73" r="4.5" fill="#F58518" fill-opacity="0.72"/>
<circle cx="101.28" cy="345.03" r="4.5" fill="#F58518" fill-opacity="0.72"/>
<circle cx="101.28" cy="343.83" r="4.5" fill="#F58518" fill-opacity="0.72"/>
<circle cx="101.28" cy="241.73" r="4.5" fill="#F58518" fill-opacity="0.72"/>
<circle cx="101.28" cy="285.73" r="4.5" fill="#F58518" fill-opacity="0.72"/>
<circle cx="101.28" cy="212.51" r="4.5" fill="#F58518" fill-opacity="0.72"/>
<circle cx="101.28" cy="437.58" r="4.5" fill="#F58518" fill-opacity="0.72"/>
<circle cx="101.28" cy="294.55" r="4.5" fill="#F58518" fill-opacity="0.72"/>
<circle cx="101.28" cy="362.95" r="4.5" fill="#F58518" fill-opacity="0.72"/>
<circle cx="101.28" cy="348.18" r="4.5" fill="#F58518" fill-opacity="0.72"/>
<circle cx="101.28" cy="187.27" r="4.5" fill="#F58518" fill-opacity="0.72"/>
<circle cx="101.28" cy="273.78" r="4.5" fill="#F58518" fill-opacity="0.72"/>
<circle cx="101.28" cy="353.06" r="4.5" fill="#F58518" fill-opacity="0.72"/>
<circle cx="101.28" cy="401.82" r="4.5" fill="#F58518" fill-opacity="0.72"/>
<circle cx="101.28" cy="326.20" r="4.5" fill="#F58518" fill-opacity="0.72"/>
<circle cx="101.28" cy="189.22" r="4.5" fill="#F58518" fill-opacity="0.72"/>
<circle cx="101.28" cy="178.48" r="4.5" fill="#F58518" fill-opacity="0.72"/>
<circle cx="101.28" cy="227.72" r="4.5" fill="#F58518" fill-opacity="0.72"/>
<circle cx="101.28" cy="267.73" r="4.5" fill="#F58518" fill-opacity="0.72"/>
<circle cx="101.28" cy="157.02" r="4.5" fill="#F58518" fill-opacity="0.72"/>
<circle cx="101.28" cy="232.73" r="4.5" fill="#F58518" fill-opacity="0.72"/>
<circle cx="105.04" cy="218.63" r="4.5" fill="#F58518" fill-opacity="0.72"/>
<circle cx="105.04" cy="238.09" r="4.5" fill="#F58518" fill-opacity="0.72"/>
<circle cx="105.04" cy="203.44" r="4.5" fill="#F58518" fill-opacity="0.72"/>
<circle cx="101.28" cy="195.52" r="4.5" fill="#F58518" fill-opacity="0.72"/>
<circle cx="101.28" cy="334.15" r="4.5" fill="#F58518" fill-opacity="0.72"/>
<circle cx="105.04" cy="308.12" r="4.5" fill="#F58518" fill-opacity="0.72"/>
<circle cx="101.28" cy="410.91" r="4.5" fill="#F58518" fill-opacity="0.72"/>
<circle cx="101.28" cy="264.84" r="4.5" fill="#F58518" fill-opacity="0.72"/>
<circle cx="105.04" cy="227.72" r="4.5" fill="#F58518" fill-opacity="0.72"/>
<circle cx="101.28" cy="165.82" r="4.5" fill="#F58518" fill-opacity="0.72"/>
<circle cx="101.28" cy="301.58" r="4.5" fill="#F58518" fill-opacity="0.72"/>
<circle cx="101.28" cy="407.67" r="4.5" fill="#F58518" fill-opacity="0.72"/>
<circle cx="101.28" cy="278.77" r="4.5" fill="#F58518" fill-opacity="0.72"/>
<circle cx="101.28" cy="334.55" r="4.5" fill="#F58518" fill-opacity="0.72"/>
<circle cx="101.28" cy="264.43" r="4.5" fill="#F58518" fill-opacity="0.72"/>
<circle cx="101.28" cy="300.86" r="4.5" fill="#F58518" fill-opacity="0.72"/>
<circle cx="101.28" cy="262.04" r="4.5" fill="#F58518" fill-opacity="0.72"/>
<circle cx="101.28" cy="385.45" r="4.5" fill="#F58518" fill-opacity="0.72"/>
<circle cx="101.28" cy="360.00" r="4.5" fill="#F58518" fill-opacity="0.72"/>
<circle cx="101.28" cy="232.73" r="4.5" fill="#F58518" fill-opacity="0.72"/>
<circle cx="101.28" cy="258.18" r="4.5" fill="#F58518" fill-opacity="0.72"/>
<circle cx="101.28" cy="283.64" r="4.5" fill="#F58518" fill-opacity="0.72"/>
<circle cx="101.28" cy="258.18" r="4.5" fill="#F58518" fill-opacity="0.72"/>
<circle cx="101.28" cy="232.73" r="4.5" fill="#F58518" fill-opacity="0.72"/>
<circle cx="101.28" cy="360.00" r="4.5" fill="#F58518" fill-opacity="0.72"/>
<circle cx="101.28" cy="385.45" r="4.5" fill="#F58518" fill-opacity="0.72"/>
<circle cx="101.28" cy="385.45" r="4.5" fill="#F58518" fill-opacity="0.72"/>
<circle cx="101.28" cy="384.17" r="4.5" fill="#F58518" fill-opacity="0.72"/>
<circle cx="101.28" cy="365.16" r="4.5" fill="#F58518" fill-opacity="0.72"/>
<circle cx="101.28" cy="308.12" r="4.5" fill="#F58518" fill-opacity="0.72"/>
<circle cx="101.28" cy="327.13" r="4.5" fill="#F58518" fill-opacity="0.72"/>
<circle cx="101.28" cy="346.14" r="4.5" fill="#F58518" fill-opacity="0.72"/>
<circle cx="97.52" cy="282.17" r="4.5" fill="#F58518" fill-opacity="0.72"/>
<circle cx="97.52" cy="253.29" r="4.5" fill="#F58518" fill-opacity="0.72"/>
<circle cx="97.52" cy="311.05" r="4.5" fill="#F58518" fill-opacity="0.72"/>
<circle cx="97.52" cy="339.93" r="4.5" fill="#F58518" fill-opacity="0.72"/>
<circle cx="97.52" cy="339.93" r="4.5" fill="#F58518" fill-opacity="0.72"/>
<circle cx="97.52" cy="321.36" r="4.5" fill="#F58518" fill-opacity="0.72"/>
<circle cx="97.52" cy="294.55" r="4.5" fill="#F58518" fill-opacity="0.72"/>
<circle cx="97.52" cy="267.73" r="4.5" fill="#F58518" fill-opacity="0.72"/>
<circle cx="97.52" cy="294.55" r="4.5" fill="#F58518" fill-opacity="0.72"/>
<circle cx="97.52" cy="321.36" r="4.5" fill="#F58518" fill-opacity="0.72"/>
<circle cx="101.28" cy="258.18" r="4.5" fill="#F58518" fill-opacity="0.72"/>
<circle cx="101.28" cy="232.73" r="4.5" fill="#F58518" fill-opacity="0.72"/>
<circle cx="101.28" cy="258.18" r="4.5" fill="#F58518" fill-opacity="0.72"/>
<circle cx="101.28" cy="283.64" r="4.5" fill="#F58518" fill-opacity="0.72"/>
<circle cx="101.28" cy="181.82" r="4.5" fill="#F58518" fill-opacity="0.72"/>
<circle cx="101.28" cy="273.78" r="4.5" fill="#F58518" fill-opacity="0.72"/>
<circle cx="101.28" cy="298.01" r="4.5" fill="#F58518" fill-opacity="0.72"/>
<circle cx="101.28" cy="322.23" r="4.5" fill="#F58518" fill-opacity="0.72"/>
<circle cx="101.28" cy="346.45" r="4.5" fill="#F58518" fill-opacity="0.72"/>
<circle cx="101.28" cy="370.67" r="4.5" fill="#F58518" fill-opacity="0.72"/>
<circle cx="101.28" cy="424.68" r="4.5" fill="#F58518" fill-opacity="0.72"/>
<circle cx="101.28" cy="389.90" r="4.5" fill="#F58518" fill-opacity="0.72"/>
<circle cx="101.28" cy="366.06" r="4.5" fill="#F58518" fill-opacity="0.72"/>
<circle cx="101.28" cy="346.45" r="4.5" fill="#F58518" fill-opacity="0.72"/>
<circle cx="101.28" cy="355.33" r="4.5" fill="#F58518" fill-opacity="0.72"/>
<circle cx="105.04" cy="282.95" r="4.5" fill="#F58518" fill-opacity="0.72"/>
<circle cx="105.04" cy="303.24" r="4.5" fill="#F58518" fill-opacity="0.72"/>
<circle cx="105.04" cy="323.54" r="4.5" fill="#F58518" fill-opacity="0.72"/>
<circle cx="105.04" cy="343.83" r="4.5" fill="#F58518" fill-opacity="0.72"/>
<circle cx="105.04" cy="364.13" r="4.5" fill="#F58518" fill-opacity="0.72"/>
<circle cx="101.28" cy="417.91" r="4.5" fill="#F58518" fill-opacity="0.72"/>
<circle cx="101.28" cy="380.36" r="4.5" fill="#F58518" fill-opacity="0.72"/>
<circle cx="101.28" cy="342.82" r="4.5" fill="#F58518" fill-opacity="0.72"/>
<circle cx="101.28" cy="305.27" r="4.5" fill="#F58518" fill-opacity="0.72"/>
<circle cx="97.52" cy="273.78" r="4.5" fill="#E45756" fill-opacity="0.72"/>
<circle cx="97.52" cy="494.29" r="4.5" fill="#E45756" fill-opacity="0.72"/>
<circle cx="120.09" cy="307.55" r="4.5" fill="#E45756" fill-opacity="0.72"/>
<circle cx="93.76" cy="640.00" r="4.5" fill="#E45756" fill-opacity="0.72"/>
<circle cx="101.28" cy="444.73" r="4.5" fill="#E45756" fill-opacity="0.72"/>
<circle cx="105.04" cy="273.09" r="4.5" fill="#E45756" fill-opacity="0.72"/>
<circle cx="97.52" cy="353.06" r="4.5" fill="#E45756" fill-opacity="0.72"/>
<circle cx="97.52" cy="413.74" r="4.5" fill="#E45756" fill-opacity="0.72"/>
<circle cx="101.28" cy="216.53" r="4.5" fill="#E45756" fill-opacity="0.72"/>
<circle cx="97.52" cy="308.54" r="4.5" fill="#E45756" fill-opacity="0.72"/>
<circle cx="101.28" cy="497.17" r="4.5" fill="#E45756" fill-opacity="0.72"/>
<circle cx="97.52" cy="439.13" r="4.5" fill="#E45756" fill-opacity="0.72"/>
<circle cx="101.28" cy="385.45" r="4.5" fill="#E45756" fill-opacity="0.72"/>
<circle cx="101.28" cy="360.00" r="4.5" fill="#E45756" fill-opacity="0.72"/>
<circle cx="101.28" cy="232.73" r="4.5" fill="#E45756" fill-opacity="0.72"/>
<circle cx="101.28" cy="258.18" r="4.5" fill="#E45756" fill-opacity="0.72"/>
<circle cx="101.28" cy="283.64" r="4.5" fill="#E45756" fill-opacity="0.72"/>
<circle cx="101.28" cy="258.18" r="4.5" fill="#E45756" fill-opacity="0.72"/>
<circle cx="101.28" cy="232.73" r="4.5" fill="#E45756" fill-opacity="0.72"/>
<circle cx="101.28" cy="360.00" r="4.5" fill="#E45756" fill-opacity="0.72"/>
<circle cx="101.28" cy="385.45" r="4.5" fill="#E45756" fill-opacity="0.72"/>
<circle cx="101.28" cy="385.45" r="4.5" fill="#E45756" fill-opacity="0.72"/>
<circle cx="101.28" cy="384.17" r="4.5" fill="#E45756" fill-opacity="0.72"/>
<circle cx="101.28" cy="365.16" r="4.5" fill="#E45756" fill-opacity="0.72"/>
<circle cx="101.28" cy="308.12" r="4.5" fill="#E45756" fill-opacity="0.72"/>
<circle cx="101.28" cy="327.13" r="4.5" fill="#E45756" fill-opacity="0.72"/>
<circle cx="101.28" cy="346.14" r="4.5" fill="#E45756" fill-opacity="0.72"/>
<circle cx="97.52" cy="282.17" r="4.5" fill="#E45756" fill-opacity="0.72"/>
<circle cx="97.52" cy="253.29" r="4.5" fill="#E45756" fill-opacity="0.72"/>
<circle cx="97.52" cy="311.05" r="4.5" fill="#E45756" fill-opacity="0.72"/>
<circle cx="97.52" cy="339.93" r="4.5" fill="#E45756" fill-opacity="0.72"/>
<circle cx="97.52" cy="339.93" r="4.5" fill="#E45756" fill-opacity="0.72"/>
<circle cx="97.52" cy="321.36" r="4.5" fill="#E45756" fill-opacity="0.72"/>
<circle cx="97.52" cy="294.55" r="4.5" fill="#E45756" fill-opacity="0.72"/>
<circle cx="97.52" cy="267.73" r="4.5" fill="#E45756" fill-opacity="0.72"/>
<circle cx="97.52" cy="294.55" r="4.5" fill="#E45756" fill-opacity="0.72"/>
<circle cx="97.52" cy="321.36" r="4.5" fill="#E45756" fill-opacity="0.72"/>
<circle cx="101.28" cy="258.18" r="4.5" fill="#E45756" fill-opacity="0.72"/>
<circle cx="101.28" cy="232.73" r="4.5" fill="#E45756" fill-opacity="0.72"/>
<circle cx="101.28" cy="258.18" r="4.5" fill="#E45756" fill-opacity="0.72"/>
<circle cx="101.28" cy="283.64" r="4.5" fill="#E45756" fill-opacity="0.72"/>
<circle cx="101.28" cy="181.82" r="4.5" fill="#E45756" fill-opacity="0.72"/>
<circle cx="101.28" cy="273.78" r="4.5" fill="#E45756" fill-opacity="0.72"/>
<circle cx="101.28" cy="298.01" r="4.5" fill="#E45756" fill-opacity="0.72"/>
<circle cx="101.28" cy="322.23" r="4.5" fill="#E45756" fill-opacity="0.72"/>
<circle cx="101.28" cy="346.45" r="4.5" fill="#E45756" fill-opacity="0.72"/>
<circle cx="101.28" cy="370.67" r="4.5" fill="#E45756" fill-opacity="0.72"/>
<circle cx="101.28" cy="424.68" r="4.5" fill="#E45756" fill-opacity="0.72"/>
<circle cx="101.28" cy="389.90" r="4.5" fill="#E45756" fill-opacity="0.72"/>
<circle cx="101.28" cy="366.06" r="4.5" fill="#E45756" fill-opacity="0.72"/>
<circle cx="101.28" cy="346.45" r="4.5" fill="#E45756" fill-opacity="0.72"/>
<circle cx="101.28" cy="355.33" r="4.5" fill="#E45756" fill-opacity="0.72"/>
<circle cx="105.04" cy="282.95" r="4.5" fill="#E45756" fill-opacity="0.72"/>
<circle cx="105.04" cy="303.24" r="4.5" fill="#E45756" fill-opacity="0.72"/>
<circle cx="105.04" cy="323.54" r="4.5" fill="#E45756" fill-opacity="0.72"/>
<circle cx="105.04" cy="343.83" r="4.5" fill="#E45756" fill-opacity="0.72"/>
<circle cx="105.04" cy="364.13" r="4.5" fill="#E45756" fill-opacity="0.72"/>
<circle cx="101.28" cy="417.91" r="4.5" fill="#E45756" fill-opacity="0.72"/>
<circle cx="101.28" cy="380.36" r="4.5" fill="#E45756" fill-opacity="0.72"/>
<circle cx="101.28" cy="342.82" r="4.5" fill="#E45756" fill-opacity="0.72"/>
<circle cx="101.28" cy="305.27" r="4.5" fill="#E45756" fill-opacity="0.72"/>
<circle cx="97.52" cy="317.13" r="4.5" fill="#72B7B2" fill-opacity="0.72"/>
<circle cx="93.76" cy="80.00" r="4.5" fill="#72B7B2" fill-opacity="0.72"/>
<circle cx="93.76" cy="514.12" r="4.5" fill="#72B7B2" fill-opacity="0.72"/>
<circle cx="105.04" cy="273.09" r="4.5" fill="#72B7B2" fill-opacity="0.72"/>
<circle cx="101.28" cy="385.45" r="4.5" fill="#72B7B2" fill-opacity="0.72"/>
<circle cx="101.28" cy="360.00" r="4.5" fill="#72B7B2" fill-opacity="0.72"/>
<circle cx="101.28" cy="232.73" r="4.5" fill="#72B7B2" fill-opacity="0.72"/>
<circle cx="101.28" cy="258.18" r="4.5" fill="#72B7B2" fill-opacity="0.72"/>
<circle cx="101.28" cy="283.64" r="4.5" fill="#72B7B2" fill-opacity="0.72"/>
<circle cx="101.28" cy="258.18" r="4.5" fill="#72B7B2" fill-opacity="0.72"/>
<circle cx="101.28" cy="232.73" r="4.5" fill="#72B7B2" fill-opacity="0.72"/>
<circle cx="101.28" cy="360.00" r="4.5" fill="#72B7B2" fill-opacity="0.72"/>
<circle cx="101.28" cy="385.45" r="4.5" fill="#72B7B2" fill-opacity="0.72"/>
<circle cx="101.28" cy="385.45" r="4.5" fill="#72B7B2" fill-opacity="0.72"/>
<circle cx="101.28" cy="384.17" r="4.5" fill="#72B7B2" fill-opacity="0.72"/>
<circle cx="101.28" cy="365.16" r="4.5" fill="#72B7B2" fill-opacity="0.72"/>
<circle cx="101.28" cy="308.12" r="4.5" fill="#72B7B2" fill-opacity="0.72"/>
<circle cx="101.28" cy="327.13" r="4.5" fill="#72B7B2" fill-opacity="0.72"/>
<circle cx="101.28" cy="346.14" r="4.5" fill="#72B7B2" fill-opacity="0.72"/>
<circle cx="97.52" cy="282.17" r="4.5" fill="#72B7B2" fill-opacity="0.72"/>
<circle cx="97.52" cy="253.29" r="4.5" fill="#72B7B2" fill-opacity="0.72"/>
<circle cx="97.52" cy="311.05" r="4.5" fill="#72B7B2" fill-opacity="0.72"/>
<circle cx="97.52" cy="339.93" r="4.5" fill="#72B7B2" fill-opacity="0.72"/>
<circle cx="97.52" cy="339.93" r="4.5" fill="#72B7B2" fill-opacity="0.72"/>
<circle cx="97.52" cy="321.36" r="4.5" fill="#72B7B2" fill-opacity="0.72"/>
<circle cx="97.52" cy="294.55" r="4.5" fill="#72B7B2" fill-opacity="0.72"/>
<circle cx="97.52" cy="267.73" r="4.5" fill="#72B7B2" fill-opacity="0.72"/>
<circle cx="97.52" cy="294.55" r="4.5" fill="#72B7B2" fill-opacity="0.72"/>
<circle cx="97.52" cy="321.36" r="4.5" fill="#72B7B2" fill-opacity="0.72"/>
<circle cx="101.28" cy="258.18" r="4.5" fill="#72B7B2" fill-opacity="0.72"/>
<circle cx="101.28" cy="232.73" r="4.5" fill="#72B7B2" fill-opacity="0.72"/>
<circle cx="101.28" cy="258.18" r="4.5" fill="#72B7B2" fill-opacity="0.72"/>
<circle cx="101.28" cy="283.64" r="4.5" fill="#72B7B2" fill-opacity="0.72"/>
<circle cx="101.28" cy="181.82" r="4.5" fill="#72B7B2" fill-opacity="0.72"/>
<circle cx="101.28" cy="273.78" r="4.5" fill="#72B7B2" fill-opacity="0.72"/>
<circle cx="101.28" cy="298.01" r="4.5" fill="#72B7B2" fill-opacity="0.72"/>
<circle cx="101.28" cy="322.23" r="4.5" fill="#72B7B2" fill-opacity="0.72"/>
<circle cx="101.28" cy="346.45" r="4.5" fill="#72B7B2" fill-opacity="0.72"/>
<circle cx="101.28" cy="370.67" r="4.5" fill="#72B7B2" fill-opacity="0.72"/>
<circle cx="101.28" cy="424.68" r="4.5" fill="#72B7B2" fill-opacity="0.72"/>
<circle cx="101.28" cy="389.90" r="4.5" fill="#72B7B2" fill-opacity="0.72"/>
<circle cx="101.28" cy="366.06" r="4.5" fill="#72B7B2" fill-opacity="0.72"/>
<circle cx="101.28" cy="346.45" r="4.5" fill="#72B7B2" fill-opacity="0.72"/>
<circle cx="101.28" cy="355.33" r="4.5" fill="#72B7B2" fill-opacity="0.72"/>
<circle cx="105.04" cy="282.95" r="4.5" fill="#72B7B2" fill-opacity="0.72"/>
<circle cx="105.04" cy="303.24" r="4.5" fill="#72B7B2" fill-opacity="0.72"/>
<circle cx="105.04" cy="323.54" r="4.5" fill="#72B7B2" fill-opacity="0.72"/>
<circle cx="105.04" cy="343.83" r="4.5" fill="#72B7B2" fill-opacity="0.72"/>
<circle cx="105.04" cy="364.13" r="4.5" fill="#72B7B2" fill-opacity="0.72"/>
<circle cx="101.28" cy="417.91" r="4.5" fill="#72B7B2" fill-opacity="0.72"/>
<circle cx="101.28" cy="380.36" r="4.5" fill="#72B7B2" fill-opacity="0.72"/>
<circle cx="101.28" cy="342.82" r="4.5" fill="#72B7B2" fill-opacity="0.72"/>
<circle cx="101.28" cy="305.27" r="4.5" fill="#72B7B2" fill-opacity="0.72"/>
<circle cx="105.04" cy="273.09" r="4.5" fill="#54A24B" fill-opacity="0.72"/>
<circle cx="101.28" cy="385.45" r="4.5" fill="#54A24B" fill-opacity="0.72"/>
<circle cx="101.28" cy="360.00" r="4.5" fill="#54A24B" fill-opacity="0.72"/>
<circle cx="101.28" cy="232.73" r="4.5" fill="#54A24B" fill-opacity="0.72"/>
<circle cx="101.28" cy="258.18" r="4.5" fill="#54A24B" fill-opacity="0.72"/>
<circle cx="101.28" cy="283.64" r="4.5" fill="#54A24B" fill-opacity="0.72"/>
<circle cx="101.28" cy="258.18" r="4.5" fill="#54A24B" fill-opacity="0.72"/>
<circle cx="101.28" cy="232.73" r="4.5" fill="#54A24B" fill-opacity="0.72"/>
<circle cx="101.28" cy="360.00" r="4.5" fill="#54A24B" fill-opacity="0.72"/>
<circle cx="101.28" cy="385.45" r="4.5" fill="#54A24B" fill-opacity="0.72"/>
<circle cx="101.28" cy="385.45" r="4.5" fill="#54A24B" fill-opacity="0.72"/>
<circle cx="101.28" cy="384.17" r="4.5" fill="#54A24B" fill-opacity="0.72"/>
<circle cx="101.28" cy="365.16" r="4.5" fill="#54A24B" fill-opacity="0.72"/>
<circle cx="101.28" cy="308.12" r="4.5" fill="#54A24B" fill-opacity="0.72"/>
<circle cx="101.28" cy="327.13" r="4.5" fill="#54A24B" fill-opacity="0.72"/>
<circle cx="101.28" cy="346.14" r="4.5" fill="#54A24B" fill-opacity="0.72"/>
<circle cx="97.52" cy="282.17" r="4.5" fill="#54A24B" fill-opacity="0.72"/>
<circle cx="97.52" cy="253.29" r="4.5" fill="#54A24B" fill-opacity="0.72"/>
<circle cx="97.52" cy="311.05" r="4.5" fill="#54A24B" fill-opacity="0.72"/>
<circle cx="97.52" cy="339.93" r="4.5" fill="#54A24B" fill-opacity="0.72"/>
<circle cx="97.52" cy="339.93" r="4.5" fill="#54A24B" fill-opacity="0.72"/>
<circle cx="97.52" cy="321.36" r="4.5" fill="#54A24B" fill-opacity="0.72"/>
<circle cx="97.52" cy="294.55" r="4.5" fill="#54A24B" fill-opacity="0.72"/>
<circle cx="97.52" cy="267.73" r="4.5" fill="#54A24B" fill-opacity="0.72"/>
<circle cx="97.52" cy="294.55" r="4.5" fill="#54A24B" fill-opacity="0.72"/>
<circle cx="97.52" cy="321.36" r="4.5" fill="#54A24B" fill-opacity="0.72"/>
<circle cx="101.28" cy="258.18" r="4.5" fill="#54A24B" fill-opacity="0.72"/>
<circle cx="101.28" cy="232.73" r="4.5" fill="#54A24B" fill-opacity="0.72"/>
<circle cx="101.28" cy="258.18" r="4.5" fill="#54A24B" fill-opacity="0.72"/>
<circle cx="101.28" cy="283.64" r="4.5" fill="#54A24B" fill-opacity="0.72"/>
<circle cx="101.28" cy="181.82" r="4.5" fill="#54A24B" fill-opacity="0.72"/>
<circle cx="101.28" cy="273.78" r="4.5" fill="#54A24B" fill-opacity="0.72"/>
<circle cx="101.28" cy="298.01" r="4.5" fill="#54A24B" fill-opacity="0.72"/>
<circle cx="101.28" cy="322.23" r="4.5" fill="#54A24B" fill-opacity="0.72"/>
<circle cx="101.28" cy="346.45" r="4.5" fill="#54A24B" fill-opacity="0.72"/>
<circle cx="101.28" cy="370.67" r="4.5" fill="#54A24B" fill-opacity="0.72"/>
<circle cx="101.28" cy="424.68" r="4.5" fill="#54A24B" fill-opacity="0.72"/>
<circle cx="101.28" cy="389.90" r="4.5" fill="#54A24B" fill-opacity="0.72"/>
<circle cx="101.28" cy="366.06" r="4.5" fill="#54A24B" fill-opacity="0.72"/>
<circle cx="101.28" cy="346.45" r="4.5" fill="#54A24B" fill-opacity="0.72"/>
<circle cx="101.28" cy="355.33" r="4.5" fill="#54A24B" fill-opacity="0.72"/>
<circle cx="105.04" cy="282.95" r="4.5" fill="#54A24B" fill-opacity="0.72"/>
<circle cx="105.04" cy="303.24" r="4.5" fill="#54A24B" fill-opacity="0.72"/>
<circle cx="105.04" cy="323.54" r="4.5" fill="#54A24B" fill-opacity="0.72"/>
<circle cx="105.04" cy="343.83" r="4.5" fill="#54A24B" fill-opacity="0.72"/>
<circle cx="105.04" cy="364.13" r="4.5" fill="#54A24B" fill-opacity="0.72"/>
<circle cx="101.28" cy="417.91" r="4.5" fill="#54A24B" fill-opacity="0.72"/>
<circle cx="101.28" cy="380.36" r="4.5" fill="#54A24B" fill-opacity="0.72"/>
<circle cx="101.28" cy="342.82" r="4.5" fill="#54A24B" fill-opacity="0.72"/>
<circle cx="101.28" cy="305.27" r="4.5" fill="#54A24B" fill-opacity="0.72"/>
<circle cx="180.26" cy="333.25" r="4.5" fill="#B279A2" fill-opacity="0.72"/>
<circle cx="187.78" cy="262.21" r="4.5" fill="#B279A2" fill-opacity="0.72"/>
<circle cx="176.50" cy="269.10" r="4.5" fill="#B279A2" fill-opacity="0.72"/>
<circle cx="187.78" cy="304.44" r="4.5" fill="#B279A2" fill-opacity="0.72"/>
<circle cx="180.26" cy="253.92" r="4.5" fill="#B279A2" fill-opacity="0.72"/>
<circle cx="184.02" cy="276.83" r="4.5" fill="#B279A2" fill-opacity="0.72"/>
<circle cx="180.26" cy="264.67" r="4.5" fill="#B279A2" fill-opacity="0.72"/>
<circle cx="176.50" cy="267.73" r="4.5" fill="#B279A2" fill-opacity="0.72"/>
<circle cx="187.78" cy="294.94" r="4.5" fill="#B279A2" fill-opacity="0.72"/>
<circle cx="168.97" cy="267.07" r="4.5" fill="#B279A2" fill-opacity="0.72"/>
<circle cx="176.50" cy="247.77" r="4.5" fill="#B279A2" fill-opacity="0.72"/>
<circle cx="180.26" cy="288.59" r="4.5" fill="#B279A2" fill-opacity="0.72"/>
<circle cx="184.02" cy="276.57" r="4.5" fill="#B279A2" fill-opacity="0.72"/>
<circle cx="180.26" cy="257.44" r="4.5" fill="#B279A2" fill-opacity="0.72"/>
<circle cx="180.26" cy="235.01" r="4.5" fill="#B279A2" fill-opacity="0.72"/>
<circle cx="176.50" cy="250.36" r="4.5" fill="#B279A2" fill-opacity="0.72"/>
<circle cx="176.50" cy="239.83" r="4.5" fill="#B279A2" fill-opacity="0.72"/>
<circle cx="187.78" cy="299.02" r="4.5" fill="#B279A2" fill-opacity="0.72"/>
<circle cx="191.54" cy="295.70" r="4.5" fill="#B279A2" fill-opacity="0.72"/>
<circle cx="172.74" cy="271.04" r="4.5" fill="#B279A2" fill-opacity="0.72"/>
<circle cx="172.74" cy="257.92" r="4.5" fill="#B279A2" fill-opacity="0.72"/>
<circle cx="176.50" cy="277.05" r="4.5" fill="#B279A2" fill-opacity="0.72"/>
<circle cx="180.26" cy="276.60" r="4.5" fill="#B279A2" fill-opacity="0.72"/>
<circle cx="168.97" cy="293.39" r="4.5" fill="#B279A2" fill-opacity="0.72"/>
<circle cx="180.26" cy="283.95" r="4.5" fill="#B279A2" fill-opacity="0.72"/>
<circle cx="187.78" cy="277.32" r="4.5" fill="#B279A2" fill-opacity="0.72"/>
<circle cx="184.02" cy="289.08" r="4.5" fill="#B279A2" fill-opacity="0.72"/>
<circle cx="172.74" cy="258.72" r="4.5" fill="#B279A2" fill-opacity="0.72"/>
<circle cx="187.78" cy="296.96" r="4.5" fill="#B279A2" fill-opacity="0.72"/>
<circle cx="187.78" cy="299.43" r="4.5" fill="#B279A2" fill-opacity="0.72"/>
<circle cx="184.02" cy="271.78" r="4.5" fill="#B279A2" fill-opacity="0.72"/>
<circle cx="176.50" cy="260.43" r="4.5" fill="#B279A2" fill-opacity="0.72"/>
<circle cx="168.97" cy="286.77" r="4.5" fill="#B279A2" fill-opacity="0.72"/>
<circle cx="187.78" cy="309.33" r="4.5" fill="#B279A2" fill-opacity="0.72"/>
<circle cx="168.97" cy="225.16" r="4.5" fill="#B279A2" fill-opacity="0.72"/>
<circle cx="180.26" cy="280.97" r="4.5" fill="#B279A2" fill-opacity="0.72"/>
<circle cx="184.02" cy="285.85" r="4.5" fill="#B279A2" fill-opacity="0.72"/>
<circle cx="184.02" cy="265.55" r="4.5" fill="#B279A2" fill-opacity="0.72"/>
<circle cx="180.26" cy="276.26" r="4.5" fill="#B279A2" fill-opacity="0.72"/>
<circle cx="191.54" cy="299.91" r="4.5" fill="#B279A2" fill-opacity="0.72"/>
<circle cx="368.29" cy="291.42" r="4.5" fill="#FF9DA6" fill-opacity="0.72"/>
<circle cx="372.05" cy="288.64" r="4.5" fill="#FF9DA6" fill-opacity="0.72"/>
<circle cx="353.25" cy="270.30" r="4.5" fill="#FF9DA6" fill-opacity="0.72"/>
<circle cx="357.01" cy="286.57" r="4.5" fill="#FF9DA6" fill-opacity="0.72"/>
<circle cx="349.49" cy="280.91" r="4.5" fill="#FF9DA6" fill-opacity="0.72"/>
<circle cx="375.81" cy="272.27" r="4.5" fill="#FF9DA6" fill-opacity="0.72"/>
<circle cx="970.00" cy="276.06" r="4.5" fill="#999999" fill-opacity="0.72"/>
<circle cx="894.79" cy="298.88" r="4.5" fill="#999999" fill-opacity="0.72"/>
<circle cx="868.46" cy="285.85" r="4.5" fill="#999999" fill-opacity="0.72"/>
<circle cx="951.20" cy="295.47" r="4.5" fill="#999999" fill-opacity="0.72"/>
<circle cx="947.44" cy="285.04" r="4.5" fill="#999999" fill-opacity="0.72"/>
<circle cx="932.39" cy="296.15" r="4.5" fill="#999999" fill-opacity="0.72"/>
<circle cx="909.83" cy="274.73" r="4.5" fill="#999999" fill-opacity="0.72"/>
<circle cx="939.91" cy="286.88" r="4.5" fill="#999999" fill-opacity="0.72"/>
<circle cx="887.26" cy="292.73" r="4.5" fill="#999999" fill-opacity="0.72"/>
<circle cx="921.11" cy="295.56" r="4.5" fill="#999999" fill-opacity="0.72"/>
<text x="530.00" y="702" text-anchor="middle" font-size="16" fill="#243b53">Word Count</text>
<text x="22" y="360.00" text-anchor="middle" transform="rotate(-90 22,360.00)" font-size="16" fill="#243b53">Compression Ratio (%)</text>
<text x="994" y="90" font-size="16" fill="#243b53">Groups</text>
<rect x="994" y="110" width="14" height="14" fill="#4C78A8" rx="3"/>
<text x="1016" y="122" font-size="13" fill="#243b53">single_word</text>
<rect x="994" y="134" width="14" height="14" fill="#F58518" rx="3"/>
<text x="1016" y="146" font-size="13" fill="#243b53">multi_word_phrase</text>
<rect x="994" y="158" width="14" height="14" fill="#E45756" rx="3"/>
<text x="1016" y="170" font-size="13" fill="#243b53">number_heavy</text>
<rect x="994" y="182" width="14" height="14" fill="#72B7B2" rx="3"/>
<text x="1016" y="194" font-size="13" fill="#243b53">punctuation_heavy</text>
<rect x="994" y="206" width="14" height="14" fill="#54A24B" rx="3"/>
<text x="1016" y="218" font-size="13" fill="#243b53">mixed_digits_punctuation</text>
<rect x="994" y="230" width="14" height="14" fill="#B279A2" rx="3"/>
<text x="1016" y="242" font-size="13" fill="#243b53">long_sentence_gt20_words</text>
<rect x="994" y="254" width="14" height="14" fill="#FF9DA6" rx="3"/>
<text x="1016" y="266" font-size="13" fill="#243b53">paragraph_samples</text>
</svg>